<?xml version="1.0" encoding="UTF-8" ?>
<!DOCTYPE svg PUBLIC "-//W3C//DTD SVG 1.1//EN" "http://www.w3.org/Graphics/SVG/1.1/DTD/svg11.dtd">
<svg width="640pt" height="640pt" viewBox="0 0 640 640" version="1.1" xmlns="http://www.w3.org/2000/svg">
<g id="#404c9fff">
<path fill="#404c9f" opacity="1.00" d=" M 279.56 16.31 C 306.67 11.08 336.07 22.22 352.94 44.04 C 354.03 45.23 354.70 47.06 356.27 47.68 C 358.33 47.62 360.27 46.86 362.23 46.30 C 378.06 41.10 395.62 41.90 411.15 47.80 C 427.10 53.56 440.53 65.29 449.50 79.56 C 455.94 88.69 459.22 99.73 460.66 110.71 C 464.40 110.73 467.96 109.39 471.61 108.75 C 487.20 105.94 503.76 109.38 517.08 117.91 C 532.33 127.60 543.59 143.64 546.72 161.51 C 550.34 177.41 547.02 194.31 539.55 208.62 C 538.38 211.03 536.92 213.36 536.35 216.01 C 536.00 217.58 537.62 218.50 538.51 219.51 C 552.86 232.05 564.40 247.46 574.50 263.54 C 583.49 277.78 590.73 293.03 597.21 308.54 C 601.17 320.72 606.05 332.64 608.50 345.27 C 613.73 371.16 616.50 397.89 613.08 424.21 C 611.39 441.02 606.47 457.51 598.36 472.35 C 594.94 479.25 589.97 485.19 584.94 490.96 C 570.35 505.26 550.89 514.02 530.75 516.84 C 523.38 518.19 515.88 518.17 508.45 518.62 C 502.88 523.26 498.59 529.31 493.45 534.44 C 467.99 560.51 436.47 580.34 402.58 593.54 C 327.83 622.54 240.63 618.70 169.32 581.70 C 142.54 567.90 118.19 549.36 98.00 526.99 C 78.96 505.96 64.43 481.01 54.64 454.43 C 44.79 424.43 40.64 392.18 45.46 360.83 C 46.84 349.72 48.67 338.63 52.28 328.00 C 57.28 314.89 62.11 301.62 69.27 289.48 C 74.03 280.14 80.30 271.73 86.16 263.07 C 90.71 257.62 95.14 252.08 99.64 246.59 C 102.49 243.14 106.29 240.60 108.93 236.98 C 107.28 234.60 104.48 233.45 102.22 231.76 C 98.42 229.32 95.38 225.92 92.52 222.47 C 88.17 217.16 82.14 213.47 78.24 207.76 C 71.25 198.72 68.14 187.30 67.60 176.03 C 67.70 162.25 72.58 148.27 82.36 138.36 C 91.86 128.11 105.65 122.49 119.56 122.40 C 119.93 121.09 120.13 119.75 120.26 118.40 C 121.11 100.84 127.45 83.37 138.99 69.99 C 149.10 58.33 162.58 49.41 177.62 45.60 C 190.55 41.92 204.44 42.09 217.39 45.58 C 221.25 46.59 224.86 48.52 228.83 49.13 C 231.42 46.60 233.41 43.54 235.89 40.90 C 247.18 28.15 262.78 19.30 279.56 16.31 M 282.56 51.41 C 265.30 54.79 249.36 64.67 238.85 78.80 C 238.11 79.49 237.40 81.05 236.15 80.53 C 230.78 78.97 225.56 76.78 219.98 76.01 C 200.84 73.22 180.30 77.83 165.17 90.17 C 159.50 94.79 154.11 99.95 150.21 106.19 C 145.13 115.07 140.95 124.56 138.83 134.60 C 138.21 138.31 138.63 142.11 137.92 145.80 C 132.55 146.71 127.01 146.94 121.89 148.98 C 112.91 151.99 105.54 158.38 99.75 165.72 C 94.40 173.43 91.50 182.67 90.66 191.97 C 90.31 198.42 92.14 204.74 94.06 210.83 C 95.43 215.36 98.68 218.98 100.31 223.39 C 101.69 228.72 107.42 231.16 111.95 233.30 C 116.43 230.46 119.98 226.43 124.17 223.22 C 133.40 216.06 142.65 208.90 152.62 202.78 C 158.57 199.79 163.95 195.79 170.00 192.97 C 186.34 184.74 203.33 177.64 221.01 172.82 C 229.64 170.48 238.40 168.63 247.15 166.82 C 259.53 163.77 272.30 162.56 285.01 162.13 C 299.77 160.95 314.59 161.84 329.33 162.82 C 341.48 164.38 353.78 165.56 365.54 169.16 C 381.65 172.63 397.47 177.68 412.47 184.54 C 433.40 192.89 452.68 204.89 470.65 218.40 C 474.05 221.02 477.64 223.57 480.24 227.05 C 472.60 240.44 464.39 253.72 459.50 268.44 C 448.54 296.71 442.32 326.72 440.48 356.96 C 439.77 379.95 440.19 403.31 446.44 425.61 C 448.46 432.43 450.24 439.38 453.31 445.83 C 458.54 456.67 464.89 467.07 472.96 476.04 C 483.53 485.94 496.40 493.58 510.45 497.31 C 516.91 498.96 523.33 496.40 529.38 494.36 C 538.72 491.20 547.51 486.41 555.15 480.16 C 567.27 469.83 575.74 455.71 580.66 440.67 C 583.83 431.60 585.11 422.02 586.32 412.53 C 587.03 401.05 586.84 389.51 586.50 378.01 C 585.02 361.26 582.40 344.52 577.24 328.47 C 570.89 309.46 562.47 291.12 552.03 274.01 C 542.22 258.33 530.64 243.49 516.39 231.58 C 514.42 230.38 515.85 228.09 516.70 226.65 C 521.20 219.61 525.05 211.92 526.32 203.58 C 527.04 197.73 526.95 191.82 526.70 185.94 C 526.45 178.00 523.07 170.57 519.22 163.77 C 508.79 144.94 487.65 132.20 465.96 133.23 C 459.71 132.84 453.80 135.25 447.65 135.68 C 444.64 113.35 430.14 93.06 410.07 82.87 C 396.48 75.72 380.45 73.53 365.38 76.30 C 361.20 77.01 357.27 78.76 353.09 79.47 C 350.24 77.93 348.81 74.68 346.56 72.43 C 330.50 55.40 305.65 46.81 282.56 51.41 Z" />
</g>
<g id="#ffffffff">
<path fill="#ffffff" opacity="1.00" d=" M 282.56 51.41 C 305.65 46.81 330.50 55.40 346.56 72.43 C 348.81 74.68 350.24 77.93 353.09 79.47 C 357.27 78.76 361.20 77.01 365.38 76.30 C 380.45 73.53 396.48 75.72 410.07 82.87 C 430.14 93.06 444.64 113.35 447.65 135.68 C 453.80 135.25 459.71 132.84 465.96 133.23 C 487.65 132.20 508.79 144.94 519.22 163.77 C 523.07 170.57 526.45 178.00 526.70 185.94 C 526.95 191.82 527.04 197.73 526.32 203.58 C 525.05 211.92 521.20 219.61 516.70 226.65 C 515.85 228.09 514.42 230.38 516.39 231.58 C 530.64 243.49 542.22 258.33 552.03 274.01 C 562.47 291.12 570.89 309.46 577.24 328.47 C 582.40 344.52 585.02 361.26 586.50 378.01 C 586.84 389.51 587.03 401.05 586.32 412.53 C 585.11 422.02 583.83 431.60 580.66 440.67 C 575.74 455.71 567.27 469.83 555.15 480.16 C 547.51 486.41 538.72 491.20 529.38 494.36 C 523.33 496.40 516.91 498.96 510.45 497.31 C 496.40 493.58 483.53 485.94 472.96 476.04 C 464.89 467.07 458.54 456.67 453.31 445.83 C 450.24 439.38 448.46 432.43 446.44 425.61 C 440.19 403.31 439.77 379.95 440.48 356.96 C 442.32 326.72 448.54 296.71 459.50 268.44 C 464.39 253.72 472.60 240.44 480.24 227.05 C 477.64 223.57 474.05 221.02 470.65 218.40 C 452.68 204.89 433.40 192.89 412.47 184.54 C 397.47 177.68 381.65 172.63 365.54 169.16 C 353.78 165.56 341.48 164.38 329.33 162.82 C 314.59 161.84 299.77 160.95 285.01 162.13 C 272.30 162.56 259.53 163.77 247.15 166.82 C 238.40 168.63 229.64 170.48 221.01 172.82 C 203.33 177.64 186.34 184.74 170.00 192.97 C 163.95 195.79 158.57 199.79 152.62 202.78 C 142.65 208.90 133.40 216.06 124.17 223.22 C 119.98 226.43 116.43 230.46 111.95 233.30 C 107.42 231.16 101.69 228.72 100.31 223.39 C 98.68 218.98 95.43 215.36 94.06 210.83 C 92.14 204.74 90.31 198.42 90.66 191.97 C 91.50 182.67 94.40 173.43 99.75 165.72 C 105.54 158.38 112.91 151.99 121.89 148.98 C 127.01 146.94 132.55 146.71 137.92 145.80 C 138.63 142.11 138.21 138.31 138.83 134.60 C 140.95 124.56 145.13 115.07 150.21 106.19 C 154.11 99.95 159.50 94.79 165.17 90.17 C 180.30 77.83 200.84 73.22 219.98 76.01 C 225.56 76.78 230.78 78.97 236.15 80.53 C 237.40 81.05 238.11 79.49 238.85 78.80 C 249.36 64.67 265.30 54.79 282.56 51.41 Z" />
</g>
</svg>
